<svg width="7" height="6" viewBox="0 0 7 6" fill="none" xmlns="http://www.w3.org/2000/svg">
<path d="M6.78034 0.969712C6.92094 1.11036 6.99993 1.30109 6.99993 1.49996C6.99993 1.69883 6.92094 1.88957 6.78034 2.03021L3.78034 5.03021C3.6397 5.17081 3.44896 5.2498 3.25009 5.2498C3.05122 5.2498 2.86049 5.17081 2.71984 5.03021L1.21984 3.53021C1.14821 3.46103 1.09107 3.37827 1.05177 3.28677C1.01246 3.19526 0.991769 3.09685 0.990904 2.99726C0.990038 2.89768 1.00901 2.79892 1.04673 2.70675C1.08444 2.61457 1.14013 2.53084 1.21055 2.46042C1.28096 2.39 1.3647 2.33431 1.45688 2.2966C1.54905 2.25889 1.64781 2.23991 1.74739 2.24077C1.84698 2.24164 1.94539 2.26233 2.03689 2.30164C2.1284 2.34094 2.21116 2.39808 2.28034 2.46971L3.25009 3.43946L5.71984 0.969712C5.86049 0.829109 6.05122 0.750122 6.25009 0.750122C6.44896 0.750122 6.6397 0.829109 6.78034 0.969712Z" fill="#7A7790"/>
</svg>
