<svg width="18" height="18" viewBox="0 0 18 18" fill="none" xmlns="http://www.w3.org/2000/svg">
<rect x="4" y="6" width="10" height="7" fill="#2A2740"/>
<path d="M8.99994 1.5C4.85994 1.5 1.49994 4.86 1.49994 9C1.49994 13.14 4.85994 16.5 8.99994 16.5C13.1399 16.5 16.4999 13.14 16.4999 9C16.4999 4.86 13.1399 1.5 8.99994 1.5ZM12.7124 7.6725L8.46744 11.9175C8.39805 11.987 8.31564 12.0422 8.22491 12.0798C8.13418 12.1175 8.03692 12.1368 7.93869 12.1368C7.84046 12.1368 7.7432 12.1175 7.65247 12.0798C7.56174 12.0422 7.47932 11.987 7.40994 11.9175L5.28744 9.795C5.218 9.72556 5.16292 9.64313 5.12534 9.55241C5.08777 9.46169 5.06842 9.36445 5.06842 9.26625C5.06842 9.16805 5.08777 9.07082 5.12534 8.98009C5.16292 8.88937 5.218 8.80694 5.28744 8.7375C5.35688 8.66806 5.43931 8.61298 5.53003 8.57541C5.62076 8.53783 5.71799 8.51849 5.81619 8.51849C5.91439 8.51849 6.01162 8.53783 6.10235 8.57541C6.19307 8.61298 6.2755 8.66806 6.34494 8.7375L7.93494 10.3275L11.6474 6.615C11.7168 6.54547 11.7992 6.49031 11.89 6.45268C11.9807 6.41504 12.078 6.39567 12.1762 6.39567C12.2744 6.39567 12.3717 6.41504 12.4624 6.45268C12.5531 6.49031 12.6356 6.54547 12.7049 6.615C13.0049 6.9075 13.0049 7.38 12.7124 7.6725Z" fill="white"/>
</svg>
