<svg width="16" height="16" viewBox="0 0 16 16" fill="none" xmlns="http://www.w3.org/2000/svg">
<path d="M8 2C6.4087 2 4.88258 2.63214 3.75736 3.75736C2.63214 4.88258 2 6.4087 2 8C2 9.5913 2.63214 11.1174 3.75736 12.2426C4.88258 13.3679 6.4087 14 8 14C9.5913 14 11.1174 13.3679 12.2426 12.2426C13.3679 11.1174 14 9.5913 14 8C14 6.4087 13.3679 4.88258 12.2426 3.75736C11.1174 2.63214 9.5913 2 8 2ZM0.5 8C0.5 3.85775 3.85775 0.5 8 0.5C12.1423 0.5 15.5 3.85775 15.5 8C15.5 12.1423 12.1423 15.5 8 15.5C3.85775 15.5 0.5 12.1423 0.5 8Z" fill="#7A7790"/>
<path d="M10.7803 5.96971C10.9209 6.11036 10.9999 6.30109 10.9999 6.49996C10.9999 6.69883 10.9209 6.88957 10.7803 7.03021L7.78034 10.0302C7.6397 10.1708 7.44896 10.2498 7.25009 10.2498C7.05122 10.2498 6.86049 10.1708 6.71984 10.0302L5.21984 8.53021C5.14821 8.46103 5.09107 8.37827 5.05177 8.28677C5.01246 8.19526 4.99177 8.09685 4.9909 7.99726C4.99004 7.89768 5.00901 7.79892 5.04673 7.70675C5.08444 7.61457 5.14013 7.53084 5.21055 7.46042C5.28096 7.39 5.3647 7.33431 5.45688 7.2966C5.54905 7.25889 5.64781 7.23991 5.74739 7.24077C5.84698 7.24164 5.94539 7.26233 6.03689 7.30164C6.1284 7.34094 6.21116 7.39808 6.28034 7.46971L7.25009 8.43946L9.71984 5.96971C9.86049 5.82911 10.0512 5.75012 10.2501 5.75012C10.449 5.75012 10.6397 5.82911 10.7803 5.96971Z" fill="#7A7790"/>
</svg>
